<svg width="64" height="64" viewBox="0 0 64 64" fill="none" xmlns="http://www.w3.org/2000/svg">
  <defs>
    <linearGradient id="bg-gradient" x1="0%" y1="0%" x2="100%" y2="100%">
      <stop offset="0%" style="stop-color:#10b981;stop-opacity:1" />
      <stop offset="50%" style="stop-color:#3b82f6;stop-opacity:1" />
      <stop offset="100%" style="stop-color:#8b5cf6;stop-opacity:1" />
    </linearGradient>
    <linearGradient id="glow-gradient" x1="0%" y1="0%" x2="100%" y2="100%">
      <stop offset="0%" style="stop-color:#ffffff;stop-opacity:0.3" />
      <stop offset="100%" style="stop-color:#ffffff;stop-opacity:0" />
    </linearGradient>
  </defs>
  
  <!-- Background with gradient -->
  <rect width="64" height="64" rx="16" fill="url(#bg-gradient)" />
  
  <!-- Glow overlay -->
  <rect width="64" height="64" rx="16" fill="url(#glow-gradient)" />
  
  <!-- Piggy Bank Icon (centered and sized) -->
  <g transform="translate(16, 16) scale(2)">
    <!-- Main body -->
    <ellipse cx="8" cy="10" rx="6" ry="4" fill="white" fill-opacity="0.95"/>
    
    <!-- Snout -->
    <ellipse cx="2" cy="10" rx="1.5" ry="1" fill="white" fill-opacity="0.9"/>
    
    <!-- Legs -->
    <rect x="4" y="13" width="1" height="2" rx="0.5" fill="white" fill-opacity="0.8"/>
    <rect x="6" y="13" width="1" height="2" rx="0.5" fill="white" fill-opacity="0.8"/>
    <rect x="9" y="13" width="1" height="2" rx="0.5" fill="white" fill-opacity="0.8"/>
    <rect x="11" y="13" width="1" height="2" rx="0.5" fill="white" fill-opacity="0.8"/>
    
    <!-- Ear -->
    <ellipse cx="10" cy="7" rx="1" ry="1.5" fill="white" fill-opacity="0.8"/>
    
    <!-- Tail -->
    <path d="M 14 9 Q 15 8 14.5 10" stroke="white" stroke-width="0.8" fill="none" stroke-opacity="0.8"/>
    
    <!-- Eye -->
    <circle cx="5" cy="9" r="0.5" fill="white" fill-opacity="0.6"/>
    
    <!-- Coin slot -->
    <rect x="7" y="6" width="2" height="0.5" rx="0.25" fill="white" fill-opacity="0.7"/>
    
    <!-- Nostril -->
    <circle cx="2" cy="9.5" r="0.3" fill="white" fill-opacity="0.5"/>
  </g>
</svg>
